# xmcd CD database file
#
# Track frame offsets:
#	150
#	10725
#	23934
#	37577
#	49575
#	63607
#	80525
#	96305
#	109496
#	122455
#
# Disc length: 1807 seconds
#
# Revision: 0
# Processed by: cddbd v1.5.1PL0 Copyright (c) Steve Scherf et al.
# Submitted via: CDex 1.51
#
DISCID=77070d0a
DTITLE=Linda Ronstadt - Simple Dreams
DYEAR=1977
DGENRE=Country
TTITLE0=It's So Easy
TTITLE1=Carmelita
TTITLE2=Simple Man, Simple Dream
TTITLE3=Sorrow Lives Here
TTITLE4=Traccia AuI Will Never Marry
TTITLE5=Blue Bayou
TTITLE6=Poor Poor Pitiful Me
TTITLE7=Maybe I'm Right
TTITLE8=Tumbling Dice
TTITLE9=Old Paint
EXTD=YEAR: 1977
EXTT0=
EXTT1=
EXTT2=
EXTT3=
EXTT4=
EXTT5=
EXTT6=
EXTT7=
EXTT8=
EXTT9=
PLAYORDER=
